<?xml version="1.0" standalone="no"?><!DOCTYPE svg PUBLIC "-//W3C//DTD SVG 1.1//EN" "http://www.w3.org/Graphics/SVG/1.1/DTD/svg11.dtd"><svg class="icon" width="200px" height="200.00px" viewBox="0 0 1024 1024" version="1.1" xmlns="http://www.w3.org/2000/svg"><path fill="#333333" d="M1011.71947 435.215011l-87.748571-84.538696V104.033954c0-22.089137-17.9073-39.998437-39.998436-39.998437h-159.993748c-22.091137 0-39.998437 17.9093-39.998436 39.998437v14.569431l-88.834529-86.716611a40.952399 40.952399 0 0 0-1.215952-1.139956c-45.510221-40.864403-114.277534-41.008397-159.957749-0.335987-0.373985 0.333987-0.741971 0.671974-1.101956 1.019961L12.306529 435.167013c-25.84899 24.851029-8.141682 68.82931 27.700917 68.853309h59.997656v359.985931c0 88.220552 71.773195 159.993747 159.993747 159.993747h143.994372c22.091137 0 39.998437-17.9073 39.998437-39.998437v-285.988823h139.994529v285.988823c0 22.091137 17.9073 39.998437 39.998436 39.998437h139.994529c88.220552 0 159.993747-71.773195 159.993747-159.993747 0-22.091137-17.9073-39.998437-39.998437-39.998437s-39.998437 17.9073-39.998436 39.998437c0 44.110276-35.886597 79.996874-79.996874 79.996873h-99.996092v-285.988823c0-22.091137-17.9073-39.998437-39.998437-39.998436h-219.991402c-22.091137 0-39.998437 17.9073-39.998437 39.998436v285.988823h-103.995935c-44.110276 0-79.996874-35.886597-79.996874-79.996873v-359.985931h663.974051v159.993747c2.111917 53.069926 77.902955 53.029927 79.996873 0v-159.993747h59.997655a39.998437 39.998437 0 0 0 27.748916-68.805311z m-872.289909-11.193563l348.206391-334.274935a39.966438 39.966438 0 0 1 52.329955 0.065997l156.0759 152.354046a39.998437 39.998437 0 0 0 67.937345-28.620882V144.032391h79.996874v223.651259a39.998437 39.998437 0 0 0 12.247521 28.804874l28.578883 27.532924z" /></svg>