<?xml version="1.0" standalone="no"?><!DOCTYPE svg PUBLIC "-//W3C//DTD SVG 1.1//EN" "http://www.w3.org/Graphics/SVG/1.1/DTD/svg11.dtd"><svg t="1659446969263" class="icon" viewBox="0 0 1024 1024" version="1.1" xmlns="http://www.w3.org/2000/svg" p-id="2564" xmlns:xlink="http://www.w3.org/1999/xlink" width="200" height="200"><defs><style type="text/css"></style></defs><path d="M544.9 369.5H206.1c-13.8 0-25-11.2-25-25s11.2-25 25-25h338.8c13.8 0 25 11.2 25 25s-11.1 25-25 25zM544.9 552.8H206.1c-13.8 0-25-11.2-25-25s11.2-25 25-25h338.8c13.8 0 25 11.2 25 25s-11.1 25-25 25z" fill="#333333" p-id="2565"></path><path d="M579 897.2H194.1c-55.6 0-100.9-45.2-100.9-100.9V249.5c0-55.6 45.2-100.9 100.9-100.9H579c55.6 0 100.9 45.2 100.9 100.9v546.8c0 55.6-45.2 100.9-100.9 100.9zM194.1 198.7c-28 0-50.9 22.8-50.9 50.9v546.8c0 28 22.8 50.9 50.9 50.9H579c28 0 50.9-22.8 50.9-50.9V249.5c0-28-22.8-50.9-50.9-50.9H194.1z" fill="#333333" p-id="2566"></path><path d="M829.9 903.6H470.4c-13.8 0-25-11.2-25-25s11.2-25 25-25h359.5c28 0 50.9-22.8 50.9-50.9V607.3c0-28-22.8-50.9-50.9-50.9H660c-13.8 0-25-11.2-25-25s11.2-25 25-25h169.9c55.6 0 100.9 45.2 100.9 100.9v195.5c0 55.6-45.3 100.8-100.9 100.8z" fill="#333333" p-id="2567"></path><path d="M544.9 736.1H206.1c-13.8 0-25-11.2-25-25s11.2-25 25-25h338.8c13.8 0 25 11.2 25 25s-11.1 25-25 25z" fill="#333333" p-id="2568"></path></svg>