<?xml version="1.0" standalone="no"?><!DOCTYPE svg PUBLIC "-//W3C//DTD SVG 1.1//EN" "http://www.w3.org/Graphics/SVG/1.1/DTD/svg11.dtd"><svg t="1659597076183" class="icon" viewBox="0 0 1024 1024" version="1.1" xmlns="http://www.w3.org/2000/svg" p-id="3771" xmlns:xlink="http://www.w3.org/1999/xlink" width="200" height="200"><defs><style type="text/css"></style></defs><path d="M56.886692 574.452913C56.886692 413.890224 144.207765 265.472843 285.912516 185.148833a465.617578 465.617578 0 0 1 458.080091 0c141.733194 80.32401 229.025824 228.712947 229.025824 389.30408C973.046874 822.763326 767.970348 1024 514.966783 1024 261.963219 1024 56.886692 822.734882 56.886692 574.452913zM292.226939 16.821111a47.870152 47.870152 0 0 1-4.835369 69.202661L84.249191 257.650923a52.051324 52.051324 0 0 1-71.677232-4.636266A47.898595 47.898595 0 0 1 17.350441 183.811996L220.521263 12.184845A51.93755 51.93755 0 0 1 257.355397 0.15331c13.453703 0.8533 25.997218 6.88329 34.871542 16.667801z m215.685894 301.983006c-28.045139 0-50.771373 21.958263-50.771373 49.036329v196.145316c0 16.411811 8.476117 31.714331 22.584017 40.816201l152.371006 98.072658c23.323544 15.018087 54.895658 8.959654 70.454169-13.595919 15.55851-22.52713 9.244088-52.961511-14.079457-67.979598l-129.758545-83.538108v-169.92055c0-27.078066-22.754677-49.036329-50.799817-49.036329zM731.107771 17.133987a51.5109 51.5109 0 0 1 71.876336-4.750038l203.569029 174.841249c21.16185 18.146855 23.323544 49.718969 4.835369 70.482612-18.516618 20.763643-50.686043 22.896894-71.847893 4.721595L735.94314 87.645043a49.292319 49.292319 0 0 1-4.835369-70.482612z" p-id="3772"></path></svg>